<svg version="1.1" xmlns="http://www.w3.org/2000/svg" viewBox="-48.54128088404274 -50.23491447648486 97.12541582029553 100.51665554715723" fill="none" stroke="black" stroke-width="0.6%" vector-effect="non-scaling-stroke">
    <path d="M -42.57587 29.15351 A 25 24.61771 225.44335 0 1 -44.64685 19.19776 A 25 24.61771 225.44335 0 1 -43.27417 11.08045" />
    <path d="M -47.54128 34.04267 L -42.57587 29.15351" />
    <path d="M -2.06997 34.7434 A 25 24.61771 225.44335 0 1 -7.26527 42.28312 A 25 24.61771 225.44335 0 1 -47.54128 34.04267 L -46.4543 34.05942 L -41.48889 29.17026 L -42.57587 29.15351" />
    <path d="M -2.06997 34.7434 L 2.89544 29.85424 L 1.80846 29.83749" />
    <path d="M 2.89544 10.00656 A 25 24.61771 225.44335 0 1 2.89544 29.85424" />
    <path d="M -2.06997 14.89572 L 2.89544 10.00656" />
    <path d="M -47.54128 14.19499 A 25 24.61771 225.44335 0 1 -42.34598 6.65527 A 25 24.61771 225.44335 0 1 -2.06997 14.89572" />
    <path d="M 47.58413 -33.99584 A 25 24.61771 45.44335 0 0 7.30813 -42.23629" />
    <path d="M 42.61872 -29.10669 L 47.58413 -33.99584" />
    <path d="M 42.61872 -29.10669 A 25 24.61771 225.44335 0 1 42.61872 -9.259 L 47.58413 -14.14816" />
    <path d="M 42.38883 -6.60844 A 25 24.61771 45.44335 0 0 47.58413 -14.14816" />
    <path d="M -28.5256 -1.1379 C -28.52 -1.14 -28.52 -1.15 -28.50965 -1.15252 C -28.5 -1.16 -28.5 -1.16 -28.49097 -1.16764 C -28.48 -1.17 -28.48 -1.18 -28.46957 -1.18326 C -28.46 -1.19 -28.45 -1.19 -28.44545 -1.19938 C -28.44 -1.2 -28.43 -1.21 -28.4186 -1.21599 C -28.41 -1.22 -28.4 -1.23 -28.38904 -1.23308 C -28.38 -1.24 -28.37 -1.24 -28.35674 -1.25065 C -28.35 -1.26 -28.33 -1.26 -28.32172 -1.26868 C -28.31 -1.27 -28.3 -1.28 -28.28397 -1.28717 C -28.27 -1.29 -28.26 -1.3 -28.24348 -1.30611 C -28.23 -1.31 -28.22 -1.32 -28.20024 -1.32547 C -28.19 -1.33 -28.17 -1.34 -28.15424 -1.34526 C -28.14 -1.35 -28.12 -1.36 -28.10547 -1.36546 C -28.09 -1.37 -28.07 -1.38 -28.05393 -1.38605 C -28.04 -1.39 -28.02 -1.4 -27.99959 -1.40701 C -27.98 -1.41 -27.96 -1.42 -27.94246 -1.42834 C -27.92 -1.44 -27.9 -1.44 -27.8825 -1.45001 C -27.86 -1.46 -27.84 -1.46 -27.81971 -1.472 C -27.8 -1.48 -27.78 -1.49 -27.75408 -1.4943 C -27.73 -1.5 -27.71 -1.51 -27.68558 -1.51688 C -27.66 -1.52 -27.64 -1.53 -27.6142 -1.53971 C -27.59 -1.55 -27.57 -1.56 -27.53992 -1.56277 C -27.51 -1.57 -27.49 -1.58 -27.46272 -1.58605 C -27.44 -1.59 -27.41 -1.6 -27.38259 -1.6095 C -27.36 -1.62 -27.33 -1.63 -27.2995 -1.63309 C -27.27 -1.64 -27.24 -1.65 -27.21344 -1.65681 C -27.16 -1.67 -27.09 -1.69 -27.03232 -1.70445 C -26.91 -1.74 -26.77 -1.77 -26.63358 -1.79956 C -25.74 -2 -24.38 -2.2 -22.9436 -2.17385 C -19.87 -2.09 -18.52 -1.32 -18.56427 -1.06925 C -18.56 -1.06 -18.57 -1.05 -18.5667 -1.04666 C -18.57 -1.04 -18.57 -1.03 -18.57396 -1.02508 C -18.58 -1.02 -18.58 -1.01 -18.58605 -1.00452 C -18.59 -1 -18.6 -0.99 -18.60295 -0.98499 C -18.61 -0.98 -18.61 -0.98 -18.6189 -0.97093 C -18.62 -0.97 -18.63 -0.96 -18.63757 -0.95749 C -18.64 -0.95 -18.65 -0.95 -18.65897 -0.94465 C -18.67 -0.94 -18.67 -0.94 -18.6831 -0.93243 C -18.69 -0.93 -18.7 -0.92 -18.70994 -0.92082 C -18.72 -0.92 -18.73 -0.91 -18.73951 -0.90983 C -18.75 -0.91 -18.76 -0.9 -18.7718 -0.89945 C -18.78 -0.9 -18.79 -0.89 -18.80682 -0.88968 C -18.82 -0.89 -18.83 -0.88 -18.84457 -0.88053 C -18.86 -0.88 -18.87 -0.87 -18.88507 -0.87199 C -18.91 -0.87 -18.94 -0.86 -18.97431 -0.85673 C -19.01 -0.85 -19.04 -0.85 -19.07462 -0.84388 C -19.11 -0.84 -19.15 -0.84 -19.18609 -0.83341 C -19.23 -0.83 -19.27 -0.83 -19.30883 -0.82527 C -19.35 -0.82 -19.4 -0.82 -19.44297 -0.81941 C -19.49 -0.82 -19.54 -0.82 -19.58863 -0.81575 C -19.64 -0.81 -19.69 -0.81 -19.74596 -0.81422 C -19.8 -0.81 -19.86 -0.81 -19.91511 -0.81471 C -19.97 -0.82 -20.03 -0.82 -20.09622 -0.81711 C -20.16 -0.82 -20.22 -0.82 -20.28946 -0.82131 C -20.36 -0.82 -20.42 -0.82 -20.49497 -0.82714 C -20.61 -0.83 -20.73 -0.83 -20.85282 -0.8396 C -20.98 -0.84 -21.11 -0.85 -21.24737 -0.85528 C -21.52 -0.87 -21.82 -0.88 -22.13498 -0.89193 C -22.77 -0.92 -23.47 -0.94 -24.18495 -0.95156 C -27.26 -0.98 -28.61 -0.85 -28.56427 -1.06925 C -28.56 -1.07 -28.56 -1.08 -28.56185 -1.08502 C -28.56 -1.09 -28.56 -1.1 -28.55458 -1.10173 C -28.55 -1.11 -28.55 -1.11 -28.5425 -1.11935 C -28.54 -1.13 -28.53 -1.13 -28.5256 -1.1379 Z" />
    <path d="M 18.6458 -47.58488 C 18.65 -47.59 18.66 -47.59 18.66175 -47.59949 C 18.67 -47.6 18.67 -47.61 18.68043 -47.61462 C 18.69 -47.62 18.69 -47.62 18.70183 -47.63024 C 18.71 -47.64 18.72 -47.64 18.72595 -47.64636 C 18.73 -47.65 18.74 -47.66 18.7528 -47.66297 C 18.76 -47.67 18.77 -47.67 18.78236 -47.68006 C 18.79 -47.69 18.8 -47.69 18.81466 -47.69763 C 18.83 -47.7 18.84 -47.71 18.84968 -47.71566 C 18.86 -47.72 18.87 -47.73 18.88743 -47.73415 C 18.9 -47.74 18.91 -47.75 18.92792 -47.75309 C 18.94 -47.76 18.96 -47.77 18.97116 -47.77245 C 18.99 -47.78 19 -47.79 19.01716 -47.79224 C 19.03 -47.8 19.05 -47.81 19.06593 -47.81244 C 19.08 -47.82 19.1 -47.83 19.11747 -47.83303 C 19.14 -47.84 19.15 -47.85 19.17181 -47.85399 C 19.19 -47.86 19.21 -47.87 19.22894 -47.87532 C 19.25 -47.88 19.27 -47.89 19.2889 -47.89699 C 19.31 -47.9 19.33 -47.91 19.35169 -47.91898 C 19.37 -47.93 19.39 -47.93 19.41732 -47.94128 C 19.44 -47.95 19.46 -47.96 19.48582 -47.96385 C 19.51 -47.97 19.53 -47.98 19.5572 -47.98669 C 19.58 -47.99 19.61 -48 19.63148 -48.00975 C 19.66 -48.02 19.68 -48.03 19.70868 -48.03302 C 19.73 -48.04 19.76 -48.05 19.78881 -48.05647 C 19.82 -48.06 19.84 -48.07 19.8719 -48.08007 C 19.9 -48.09 19.93 -48.1 19.95796 -48.10379 C 20.02 -48.12 20.08 -48.14 20.13908 -48.15143 C 20.26 -48.18 20.4 -48.22 20.53782 -48.24654 C 21.43 -48.45 22.79 -48.65 24.2278 -48.62082 C 27.3 -48.53 28.65 -47.77 28.60713 -47.51623 C 28.61 -47.51 28.61 -47.5 28.6047 -47.49364 C 28.6 -47.49 28.6 -47.48 28.59744 -47.47206 C 28.59 -47.47 28.59 -47.46 28.58535 -47.45149 C 28.58 -47.44 28.57 -47.44 28.56845 -47.43197 C 28.56 -47.43 28.56 -47.42 28.5525 -47.41791 C 28.55 -47.41 28.54 -47.41 28.53383 -47.40447 C 28.53 -47.4 28.52 -47.4 28.51243 -47.39163 C 28.5 -47.39 28.5 -47.38 28.4883 -47.37941 C 28.48 -47.38 28.47 -47.37 28.46146 -47.3678 C 28.45 -47.36 28.44 -47.36 28.43189 -47.35681 C 28.42 -47.35 28.41 -47.35 28.3996 -47.34643 C 28.39 -47.34 28.38 -47.34 28.36458 -47.33666 C 28.35 -47.33 28.34 -47.33 28.32683 -47.32751 C 28.31 -47.32 28.3 -47.32 28.28633 -47.31897 C 28.26 -47.31 28.23 -47.31 28.19709 -47.30371 C 28.17 -47.3 28.13 -47.29 28.09678 -47.29086 C 28.06 -47.29 28.02 -47.28 27.98531 -47.28039 C 27.95 -47.28 27.91 -47.27 27.86257 -47.27225 C 27.82 -47.27 27.78 -47.27 27.72843 -47.26639 C 27.68 -47.26 27.63 -47.26 27.58277 -47.26273 C 27.53 -47.26 27.48 -47.26 27.42544 -47.26119 C 27.37 -47.26 27.31 -47.26 27.25629 -47.26169 C 27.2 -47.26 27.14 -47.26 27.07518 -47.26409 C 27.01 -47.27 26.95 -47.27 26.88194 -47.26829 C 26.82 -47.27 26.75 -47.27 26.67643 -47.27412 C 26.56 -47.28 26.44 -47.28 26.31858 -47.28658 C 26.19 -47.29 26.06 -47.3 25.92403 -47.30226 C 25.65 -47.31 25.35 -47.33 25.03642 -47.33891 C 24.41 -47.36 23.7 -47.39 22.98645 -47.39854 C 19.91 -47.43 18.56 -47.29 18.60713 -47.51623 C 18.61 -47.52 18.61 -47.53 18.60955 -47.532 C 18.61 -47.54 18.61 -47.54 18.61682 -47.5487 C 18.62 -47.55 18.62 -47.56 18.6289 -47.56633 C 18.63 -47.57 18.64 -47.58 18.6458 -47.58488 Z" />
    <path d="M -43.65458 19.21305 A 24 23.633 225.44335 0 1 -41.48889 9.32258" />
    <path d="M -41.48889 29.17026 A 24 23.633 225.44335 0 1 -43.65458 19.21305" />
    <path d="M -3.15695 34.72665 L -2.06997 34.7434" />
    <path d="M -3.15695 34.72665 A 24 23.633 225.44335 0 1 -7.96689 41.57056 A 24 23.633 225.44335 0 1 -46.4543 34.05942" />
    <path d="M -3.15695 34.72665 L 1.80846 29.83749" />
    <path d="M 2.13929 10.7511 A 24 23.633 225.44335 0 1 1.80846 29.83749" />
    <path d="M -3.15695 14.87896 L -2.06997 14.89572" />
    <path d="M -47.54128 14.19499 L -46.4543 14.21174 L -41.48889 9.32258" />
    <path d="M -46.4543 14.21174 A 24 23.633 225.44335 0 1 -41.64437 7.36782 A 24 23.633 225.44335 0 1 -3.15695 14.87896" />
    <path d="M 43.31703 -11.03362 L 46.49715 -14.16491 L 47.58413 -14.14816" />
    <path d="M -25.82979 -0.95658 C -25.78 -0.97 -25.73 -0.97 -25.67471 -0.98229 C -25.62 -0.99 -25.57 -1 -25.51526 -1.00707 C -25.46 -1.02 -25.41 -1.02 -25.35161 -1.03077 C -25.3 -1.04 -25.24 -1.05 -25.18396 -1.05325 C -25.13 -1.06 -25.07 -1.07 -25.01249 -1.07438 C -24.95 -1.08 -24.9 -1.09 -24.83743 -1.09402 C -24.78 -1.1 -24.72 -1.11 -24.659 -1.11203 C -24.6 -1.12 -24.54 -1.12 -24.47743 -1.12828 C -24.42 -1.13 -24.35 -1.14 -24.29298 -1.14266 C -24.23 -1.15 -24.17 -1.15 -24.10588 -1.15503 C -24.04 -1.16 -23.98 -1.16 -23.91643 -1.16529 C -23.85 -1.17 -23.79 -1.17 -23.72487 -1.17333 C -23.66 -1.18 -23.6 -1.18 -23.53152 -1.17906 C -23.47 -1.18 -23.4 -1.18 -23.33665 -1.18237 C -23.27 -1.18 -23.21 -1.18 -23.14057 -1.1832 C -23.08 -1.18 -23.01 -1.18 -22.9436 -1.18146 C -22.91 -1.18 -22.87 -1.18 -22.83448 -1.17938 C -22.8 -1.18 -22.76 -1.18 -22.72619 -1.17651 C -22.69 -1.18 -22.65 -1.17 -22.61877 -1.17288 C -22.58 -1.17 -22.55 -1.17 -22.51228 -1.16849 C -22.48 -1.17 -22.44 -1.17 -22.40675 -1.16336 C -22.37 -1.16 -22.34 -1.16 -22.30222 -1.1575 C -22.27 -1.16 -22.23 -1.15 -22.19875 -1.15093 C -22.16 -1.15 -22.13 -1.15 -22.09637 -1.14367 C -22.06 -1.14 -22.03 -1.14 -21.99511 -1.13574 C -21.96 -1.13 -21.93 -1.13 -21.89503 -1.12715 C -21.86 -1.12 -21.83 -1.12 -21.79615 -1.11792 C -21.76 -1.11 -21.73 -1.11 -21.69852 -1.10808 C -21.57 -1.09 -21.44 -1.08 -21.32108 -1.06295 C -20.83 -1 -20.4 -0.91 -20.05185 -0.81637" />
    <path d="M 21.34161 -47.40356 C 21.39 -47.41 21.44 -47.42 21.49669 -47.42927 C 21.55 -47.44 21.6 -47.45 21.65614 -47.45404 C 21.71 -47.46 21.76 -47.47 21.81979 -47.47775 C 21.88 -47.49 21.93 -47.49 21.98744 -47.50023 C 22.04 -47.51 22.1 -47.51 22.15891 -47.52136 C 22.22 -47.53 22.28 -47.53 22.33397 -47.541 C 22.39 -47.55 22.45 -47.55 22.5124 -47.55901 C 22.57 -47.56 22.63 -47.57 22.69397 -47.57526 C 22.75 -47.58 22.82 -47.59 22.87842 -47.58964 C 22.94 -47.59 23 -47.6 23.06552 -47.60201 C 23.13 -47.61 23.19 -47.61 23.25497 -47.61227 C 23.32 -47.62 23.38 -47.62 23.44653 -47.62031 C 23.51 -47.62 23.58 -47.62 23.63988 -47.62604 C 23.7 -47.63 23.77 -47.63 23.83475 -47.62935 C 23.9 -47.63 23.97 -47.63 24.03083 -47.63018 C 24.1 -47.63 24.16 -47.63 24.2278 -47.62844 C 24.26 -47.63 24.3 -47.63 24.33692 -47.62636 C 24.37 -47.63 24.41 -47.62 24.44521 -47.62349 C 24.48 -47.62 24.52 -47.62 24.55263 -47.61986 C 24.59 -47.62 24.62 -47.62 24.65912 -47.61547 C 24.69 -47.61 24.73 -47.61 24.76465 -47.61034 C 24.8 -47.61 24.83 -47.61 24.86918 -47.60448 C 24.9 -47.6 24.94 -47.6 24.97265 -47.59791 C 25.01 -47.6 25.04 -47.59 25.07503 -47.59065 C 25.11 -47.59 25.14 -47.59 25.17628 -47.58272 C 25.21 -47.58 25.24 -47.58 25.27637 -47.57413 C 25.31 -47.57 25.34 -47.57 25.37525 -47.5649 C 25.41 -47.56 25.44 -47.56 25.47288 -47.55506 C 25.6 -47.54 25.73 -47.53 25.85032 -47.50993 C 26.34 -47.44 26.77 -47.36 27.11955 -47.26335" />
    <path d="M -7.26527 42.28312 L 42.38883 -6.60844" />
    <path d="M -42.34598 6.65527 L 7.30813 -42.23629" />
</svg>